<svg width="24" height="24" viewBox="0 0 24 24" fill="none" xmlns="http://www.w3.org/2000/svg">
<path d="M8.77239 7.83955C8.39925 8.92164 8.17537 10.0784 8.10075 11.291H11.3097V7.83955H8.77239ZM9.35075 6.4403H11.3097V3.6791C10.5261 4.46269 9.87314 5.39552 9.35075 6.4403ZM7.8209 6.4403C8.23134 5.48881 8.75373 4.59328 9.3694 3.79104C7.78358 4.29478 6.42164 5.24627 5.43284 6.4403H7.8209ZM19.5373 7.83955H16.7015C17.0373 8.92164 17.2425 10.0784 17.2985 11.291H20.5821C20.4888 10.041 20.1157 8.88433 19.5373 7.83955ZM15.8993 11.291C15.8433 10.0784 15.6007 8.92164 15.2276 7.83955H12.6903V11.291H15.8993ZM14.6493 6.4403C14.1455 5.39552 13.4739 4.46269 12.6903 3.6791V6.4403H14.6493ZM16.1791 6.4403H18.5672C17.5597 5.26493 16.1978 4.29478 14.6306 3.79104C15.2463 4.59328 15.7687 5.48881 16.1791 6.4403ZM4.46269 16.1418H7.29851C6.96269 15.0597 6.75746 13.903 6.70149 12.6903H3.41791C3.52985 13.9403 3.88433 15.1157 4.46269 16.1418ZM8.10075 12.6903C8.15672 13.903 8.39925 15.0597 8.77239 16.1418H11.3097V12.6903H8.10075ZM9.35075 17.541C9.87314 18.5858 10.5448 19.5187 11.3097 20.3022V17.541H9.35075ZM7.8209 17.541H5.41418C6.42164 18.7164 7.78358 19.6866 9.35075 20.1903C8.75373 19.4067 8.23134 18.5112 7.8209 17.541ZM16.7015 16.1418H19.5373C20.1157 15.097 20.4701 13.9403 20.5821 12.6903H17.2985C17.2425 13.903 17.0373 15.0597 16.7015 16.1418ZM15.2276 16.1418C15.6007 15.0597 15.8246 13.903 15.8993 12.6903H12.6903V16.1418H15.2276ZM14.6493 17.541H12.6903V20.3022C13.4739 19.5373 14.1455 18.6045 14.6493 17.541ZM16.1791 17.541C15.7687 18.4925 15.2463 19.3881 14.6306 20.1903C16.2164 19.6866 17.5784 18.7351 18.5672 17.541H16.1791ZM7.29851 7.83955H4.46269C3.88433 8.88433 3.52985 10.0597 3.41791 11.291H6.70149C6.77612 10.097 6.98134 8.92164 7.29851 7.83955ZM12 22C6.47761 22 2 17.5224 2 12C2 6.47761 6.47761 2 12 2C17.5224 2 22 6.47761 22 12C22 17.5224 17.5224 22 12 22Z" fill="black"/>
</svg>
