<svg width="86" height="26" viewBox="0 0 86 26" fill="none" xmlns="http://www.w3.org/2000/svg">
<path d="M9.18787 19.3069C8.53126 19.3069 7.99579 19.5289 7.58147 19.9734C7.16643 20.4176 6.95962 20.9758 6.95962 21.6459V26H11.1821V21.6459C11.1821 20.8979 11.0018 20.3208 10.6423 19.9155C10.2828 19.5099 9.79788 19.3069 9.18787 19.3069Z" fill="white"/>
<path d="M5.24678 17.4354C5.57508 17.7163 5.83314 17.9897 6.0213 18.2538H6.1385C6.34101 17.9893 6.62272 17.7163 6.98292 17.4354C7.74885 16.8901 8.64021 16.6171 9.65667 16.6171C10.8925 16.6171 11.944 17.0813 12.8121 18.0093C13.6802 18.9371 14.1146 20.0713 14.1146 21.4122V26H26.0758L17.1023 0H8.97354L3.22821 16.646C3.96904 16.7261 4.6425 16.9873 5.24678 17.4354Z" fill="white"/>
<path d="M4.02711 21.6455C4.02711 20.8976 3.84754 20.3204 3.48806 19.9152C3.18305 19.5721 2.78844 19.3756 2.30458 19.323L0 25.9996H4.02711V21.6455Z" fill="white"/>
<path d="M34.9845 10.9954L34.8555 10.3521H34.791C34.6791 10.489 34.5282 10.618 34.3394 10.7381C33.9265 10.9954 33.453 11.124 32.9201 11.124C32.1975 11.124 31.619 10.931 31.1846 10.5451C30.7502 10.1591 30.533 9.68742 30.533 9.12993C30.533 8.46094 30.7653 7.92919 31.2298 7.53466C31.6943 7.14049 32.3652 6.94286 33.2423 6.94286H34.7261V6.81421C34.7261 6.44541 34.6207 6.14987 34.41 5.92688C34.1989 5.70388 33.9171 5.59239 33.5648 5.59239C33.2125 5.59239 32.9602 5.67815 32.7584 5.84969C32.5563 6.02122 32.438 6.2142 32.4036 6.42862H30.7907C30.8681 5.83682 31.1434 5.33544 31.6165 4.92376C32.0893 4.51207 32.7391 4.30623 33.5648 4.30623C34.3906 4.30623 35.059 4.54638 35.5709 5.02668C36.0827 5.50733 36.3386 6.10306 36.3386 6.81493V10.9957L34.9845 10.9954ZM34.7264 8.35838V8.16541H33.3716C32.5545 8.16541 32.1462 8.44379 32.1462 9.00128C32.1462 9.25858 32.2366 9.46264 32.4172 9.61237C32.5978 9.76246 32.8516 9.83715 33.1781 9.83715C33.6684 9.83715 34.049 9.70671 34.32 9.44477C34.591 9.18318 34.7264 8.82153 34.7264 8.35838Z" fill="white"/>
<path d="M37.3708 1.99016H38.9837V5.14175H39.0482C39.1682 4.98773 39.3191 4.8505 39.4998 4.73042C39.9212 4.44739 40.3944 4.30588 40.9191 4.30588C41.7789 4.30588 42.4993 4.62107 43.0799 5.25146C43.6609 5.88149 43.9509 6.70307 43.9509 7.71513C43.9509 8.72718 43.6609 9.54805 43.0799 10.1784C42.4993 10.8088 41.7789 11.124 40.9191 11.124C40.3513 11.124 39.861 10.9872 39.4481 10.7123C39.2675 10.5926 39.1127 10.4507 38.9837 10.2881H38.9191L38.7901 10.9957H37.3708V1.99016ZM39.4481 9.13636C39.7578 9.4755 40.1621 9.64453 40.661 9.64453C41.1599 9.64453 41.5638 9.4755 41.8739 9.13636C42.1835 8.79758 42.3384 8.32407 42.3384 7.71513C42.3384 7.10618 42.1835 6.63267 41.8739 6.29353C41.5638 5.95475 41.1599 5.78536 40.661 5.78536C40.1621 5.78536 39.7578 5.95475 39.4481 6.29353C39.1385 6.63267 38.9837 7.10618 38.9837 7.71513C38.9837 8.32407 39.1385 8.79758 39.4481 9.13636Z" fill="white"/>
<path d="M44.725 1.99016H46.3379V5.14175H46.4024C46.5225 4.98773 46.6734 4.8505 46.854 4.73042C47.2755 4.44739 47.7486 4.30588 48.2733 4.30588C49.1331 4.30588 49.8535 4.62107 50.4342 5.25146C51.0151 5.88149 51.3051 6.70307 51.3051 7.71513C51.3051 8.72718 51.0151 9.54805 50.4342 10.1784C49.8535 10.8088 49.1331 11.124 48.2733 11.124C47.7056 11.124 47.2153 10.9872 46.8024 10.7123C46.6217 10.5926 46.4669 10.4507 46.3379 10.2881H46.2734L46.1443 10.9957H44.725V1.99016ZM46.8024 9.13636C47.112 9.4755 47.5163 9.64453 48.0152 9.64453C48.5142 9.64453 48.9181 9.4755 49.2281 9.13636C49.5378 8.79758 49.6926 8.32407 49.6926 7.71513C49.6926 7.10618 49.5378 6.63267 49.2281 6.29353C48.9181 5.95475 48.5142 5.78536 48.0152 5.78536C47.5163 5.78536 47.112 5.95475 46.8024 6.29353C46.4927 6.63267 46.3379 7.10618 46.3379 7.71513C46.3379 8.32407 46.4927 8.79758 46.8024 9.13636Z" fill="white"/>
<path d="M56.1433 10.9954L56.0143 10.3521H55.9497C55.8379 10.489 55.687 10.618 55.4981 10.7381C55.0853 10.9954 54.6118 11.124 54.0788 11.124C53.3563 11.124 52.7778 10.931 52.3434 10.5451C51.909 10.1591 51.6918 9.68742 51.6918 9.12993C51.6918 8.46094 51.9241 7.92919 52.3886 7.53466C52.8531 7.14049 53.524 6.94286 54.4011 6.94286H55.8849V6.81421C55.8849 6.44541 55.7795 6.14987 55.5688 5.92688C55.3577 5.70388 55.0759 5.59239 54.7236 5.59239C54.3713 5.59239 54.119 5.67815 53.9172 5.84969C53.7151 6.02122 53.5968 6.2142 53.5624 6.42862H51.9495C52.0269 5.83682 52.3022 5.33544 52.7753 4.92376C53.248 4.51207 53.8978 4.30623 54.7236 4.30623C55.5494 4.30623 56.2178 4.54638 56.7297 5.02668C57.2415 5.50733 57.4974 6.10306 57.4974 6.81493V10.9957L56.1433 10.9954ZM55.8852 8.35838V8.16541H54.5304C53.7133 8.16541 53.305 8.44379 53.305 9.00128C53.305 9.25858 53.3954 9.46264 53.576 9.61237C53.7566 9.76246 54.0104 9.83715 54.3369 9.83715C54.8272 9.83715 55.2078 9.70671 55.4788 9.44477C55.7498 9.18318 55.8852 8.82153 55.8852 8.35838Z" fill="white"/>
<path d="M30.5334 15.1801H32.2251V16.3405H32.2613C32.5312 15.5689 33.2211 15.0604 34.0971 15.0604C35.0271 15.0604 35.6748 15.5389 35.8909 16.3766H35.9271C36.2149 15.5689 36.983 15.0604 37.9249 15.0604C39.1847 15.0604 40.0309 15.922 40.0309 17.2139V21.5926H38.279V17.6506C38.279 16.9087 37.907 16.502 37.2292 16.502C36.5515 16.502 36.1253 16.9866 36.1253 17.6984V21.5926H34.4397V17.5966C34.4397 16.9087 34.0498 16.502 33.4018 16.502C32.7537 16.502 32.2857 17.0044 32.2857 17.7224V21.5926H30.5341L30.5334 15.1801Z" fill="white"/>
<path d="M40.8918 19.7504C40.8918 18.584 41.7918 17.9079 43.3935 17.8124L45.0132 17.7167V17.2921C45.0132 16.6939 44.5935 16.3469 43.9333 16.3469C43.2731 16.3469 42.8656 16.6699 42.7814 17.1424H41.1796C41.2456 15.8984 42.3076 15.0429 44.0114 15.0429C45.7153 15.0429 46.7354 15.8923 46.7354 17.1846V21.593H45.0437V20.612H45.0075C44.6476 21.2942 43.8494 21.6948 43.0455 21.6948C41.8215 21.6948 40.8918 20.9047 40.8918 19.7504ZM45.0136 19.2419V18.7752L43.6577 18.8592C43.0036 18.907 42.6319 19.2001 42.6319 19.6547C42.6319 20.1332 43.028 20.4323 43.6218 20.4323C44.3838 20.4323 45.0136 19.9359 45.0136 19.2419Z" fill="white"/>
<path d="M47.8622 15.1801H49.5539V16.3347H49.5901C49.8181 15.521 50.3639 15.0786 51.1198 15.0786C51.3237 15.0786 51.4979 15.1086 51.6176 15.1444V16.6817C51.4735 16.6217 51.2338 16.5799 50.9818 16.5799C50.118 16.5799 49.6138 17.1063 49.6138 18.0097V21.593H47.8622V15.1801Z" fill="white"/>
<path d="M56.3325 15.1801H58.3185L55.8648 17.9318L58.4386 21.5926H56.4225L54.5806 18.9846L54.1247 19.4749V21.5926H52.3728V12.9609H54.1247V17.7524H54.1487L56.3325 15.1801Z" fill="white"/>
<path d="M64.5082 19.6307C64.3161 20.8868 63.1642 21.7306 61.5746 21.7306C59.5948 21.7306 58.407 20.4684 58.407 18.4164C58.407 16.3644 59.607 15.0425 61.5087 15.0425C63.4104 15.0425 64.5624 16.3047 64.5624 18.2545V18.787H60.1288V18.8949C60.1288 19.8101 60.7105 20.4383 61.6048 20.4383C62.2467 20.4383 62.7388 20.1214 62.9008 19.6307H64.5082ZM60.1467 17.7167H62.8764C62.8406 16.8972 62.3065 16.3347 61.5266 16.3347C60.7467 16.3347 60.2066 16.9147 60.1467 17.7167Z" fill="white"/>
<path d="M67.6805 13.7028V15.1801H68.8683V16.4963H67.6805V19.565C67.6805 20.0556 67.9207 20.289 68.4364 20.289C68.5923 20.289 68.7543 20.2768 68.8622 20.259V21.5451C68.6823 21.5873 68.3823 21.6169 68.0282 21.6169C66.5164 21.6169 65.9283 21.1145 65.9283 19.8644V16.4966H65.0222V15.1805H65.9283V13.7031L67.6805 13.7028Z" fill="white"/>
<path d="M69.7977 13.5709C69.7977 13.0627 70.2056 12.6678 70.7335 12.6678C71.2614 12.6678 71.6693 13.0627 71.6693 13.5709C71.6693 14.0791 71.2614 14.4743 70.7335 14.4743C70.2056 14.4743 69.7977 14.0737 69.7977 13.5709ZM69.8579 15.1801H71.6098V21.5926H69.8579V15.1801Z" fill="white"/>
<path d="M72.7728 15.1801H74.4645V16.3226H74.5007C74.8427 15.5271 75.5204 15.0604 76.5107 15.0604C77.9386 15.0604 78.7425 15.9577 78.7425 17.459V21.5926H76.9906V17.8242C76.9906 16.9866 76.5946 16.5081 75.8089 16.5081C75.0233 16.5081 74.5251 17.0823 74.5251 17.9139V21.5926H72.7736L72.7728 15.1801Z" fill="white"/>
<path d="M79.8145 22.0476H81.5303C81.6682 22.49 82.1722 22.7952 82.8381 22.7952C83.7442 22.7952 84.2481 22.2927 84.2481 21.5512V20.4266H84.2119C83.9119 21.1084 83.156 21.5751 82.2259 21.5751C80.6539 21.5751 79.616 20.3669 79.616 18.3628C79.616 16.3587 80.6238 15.0786 82.256 15.0786C83.18 15.0786 83.9058 15.5628 84.242 16.2986H84.2721V15.1801H86V21.5029C86 23.0342 84.7162 24.0091 82.7904 24.0091C81.0987 24.0091 79.9525 23.1901 79.8145 22.0476ZM84.2542 18.3746C84.2542 17.2199 83.6961 16.4784 82.8202 16.4784C81.9442 16.4784 81.4102 17.2081 81.4102 18.3746C81.4102 19.541 81.9503 20.2289 82.8202 20.2289C83.69 20.2289 84.2542 19.5349 84.2542 18.3746Z" fill="white"/>
</svg>
