<svg width="32" height="32" viewBox="0 0 32 32" fill="none" xmlns="http://www.w3.org/2000/svg">
<path d="M14.6666 23.381C14.6666 24.091 15.2263 24.6667 15.9166 24.6667C16.607 24.6667 17.1666 24.091 17.1666 23.381C17.1666 22.6709 16.607 22.0952 15.9166 22.0952C15.2263 22.0952 14.6666 22.6709 14.6666 23.381Z" stroke="white" stroke-width="2" stroke-linecap="round" stroke-linejoin="round"/>
<path d="M14.6666 15.6667C14.6666 16.3768 15.2263 16.9524 15.9166 16.9524C16.607 16.9524 17.1666 16.3768 17.1666 15.6667C17.1666 14.9566 16.607 14.381 15.9166 14.381C15.2263 14.381 14.6666 14.9566 14.6666 15.6667Z" stroke="white" stroke-width="2" stroke-linecap="round" stroke-linejoin="round"/>
<path d="M14.6666 7.95239C14.6666 8.66247 15.2263 9.2381 15.9166 9.2381C16.607 9.2381 17.1666 8.66247 17.1666 7.95239C17.1666 7.24231 16.607 6.66667 15.9166 6.66667C15.2263 6.66667 14.6666 7.24231 14.6666 7.95239Z" stroke="white" stroke-width="2" stroke-linecap="round" stroke-linejoin="round"/>
</svg>
